<svg xmlns="http://www.w3.org/2000/svg" viewBox="0 0 24 24"
    id="Headphones-Customer-Support--Streamline-Ultimate" height="24" width="24">
    <path
        d="M24 14.25A4.5 4.5 0 0 0 21 10v-0.75a9 9 0 0 0 -18 0V10a4.5 4.5 0 0 0 0 8.48 1.54 1.54 0 0 0 1.37 -0.18A1.53 1.53 0 0 0 5 17.08V9.25a7 7 0 0 1 14 0v7.83a1.49 1.49 0 0 0 0.5 1.1v0.57c0 1.48 -1.29 2 -2.5 2h-1.78a2 2 0 1 0 -1.72 3 2 2 0 0 0 1.72 -1H17c2.65 0 4.5 -1.64 4.5 -4v-0.48a4.5 4.5 0 0 0 2.5 -4.02Z"
        fill="white" stroke-width="1"></path>
</svg>