<svg width="244" height="239" viewBox="0 0 244 239" fill="none" xmlns="http://www.w3.org/2000/svg">
<circle cx="62.5" cy="181.5" r="181" stroke="url(#paint0_linear_542_4866)" stroke-dasharray="2 2"/>
<circle cx="62.5" cy="181.5" r="98" stroke="url(#paint1_linear_542_4866)" stroke-dasharray="2 2"/>
<path d="M140 109.017V110.97C138.805 110.97 137.622 111.204 136.519 111.658C135.415 112.112 134.412 112.777 133.568 113.616C132.724 114.455 132.055 115.45 131.598 116.546C131.142 117.641 130.908 118.815 130.91 120H129.09C129.09 117.609 128.132 115.315 126.427 113.624C124.723 111.933 122.411 110.983 120 110.983V109.03C121.195 109.03 122.378 108.796 123.481 108.342C124.585 107.888 125.588 107.223 126.432 106.384C127.276 105.545 127.945 104.55 128.402 103.454C128.858 102.359 129.092 101.185 129.09 100H130.91C130.91 102.391 131.868 104.685 133.573 106.376C135.277 108.067 137.589 109.017 140 109.017Z" fill="#5F687C"/>
<defs>
<linearGradient id="paint0_linear_542_4866" x1="198.134" y1="58.9711" x2="22.5307" y2="234.574" gradientUnits="userSpaceOnUse">
<stop stop-color="white" stop-opacity="0.3"/>
<stop offset="1" stop-color="white" stop-opacity="0"/>
</linearGradient>
<linearGradient id="paint1_linear_542_4866" x1="136.108" y1="115.004" x2="40.8087" y2="210.303" gradientUnits="userSpaceOnUse">
<stop stop-color="white" stop-opacity="0.2"/>
<stop offset="1" stop-color="white" stop-opacity="0"/>
</linearGradient>
</defs>
</svg>
